<svg xmlns="http://www.w3.org/2000/svg" viewBox="0 0 800 800">
  <defs>
    <linearGradient id="g" x1="0" y1="0" x2="1" y2="1">
      <stop offset="0" stop-color="#0b0d18"/>
      <stop offset="1" stop-color="#081a1f"/>
    </linearGradient>
  </defs>
  <rect width="800" height="800" fill="url(#g)"/>
  <rect x="70" y="190" width="660" height="340" rx="34" fill="#0a1014" stroke="#00b7a9" stroke-width="5"/>
  <g fill="#1e2a2c">
    <rect x="100" y="230" width="70" height="70" rx="8"/>
    <rect x="180" y="230" width="70" height="70" rx="8"/>
    <rect x="260" y="230" width="70" height="70" rx="8"/>
    <rect x="340" y="230" width="70" height="70" rx="8"/>
    <rect x="420" y="230" width="70" height="70" rx="8"/>
    <rect x="500" y="230" width="70" height="70" rx="8"/>
    <rect x="580" y="230" width="70" height="70" rx="8"/>
    <rect x="100" y="320" width="140" height="70" rx="8"/>
    <rect x="250" y="320" width="140" height="70" rx="8"/>
    <rect x="400" y="320" width="140" height="70" rx="8"/>
    <rect x="550" y="320" width="100" height="70" rx="8"/>
    <rect x="100" y="410" width="220" height="70" rx="8"/>
    <rect x="330" y="410" width="260" height="70" rx="8"/>
    <rect x="600" y="410" width="50" height="70" rx="8"/>
  </g>
  <text x="60" y="120" fill="#00b7a9" font-family="Arial, sans-serif" font-size="36" font-weight="700">KEYBOARD 07</text>
</svg>
